<?xml version="1.0" standalone="no"?>
<svg width="72px" height="78px" viewBox="0 0 72 78" version="1.1" xmlns="http://www.w3.org/2000/svg" xmlns:xlink="http://www.w3.org/1999/xlink">
    <!-- Generator: Sketch 48.2 (47327) - http://www.bohemiancoding.com/sketch -->
    <desc>Created with Sketch.</desc>
    <defs></defs>
    <g id="新闻-主页面" stroke="none" stroke-width="1" fill="none" fill-rule="evenodd" fill-opacity="0.88">
        <g id="1.新闻-首页（浮层）" transform="translate(-184.000000, -1029.000000)" fill="#FFFFFF">
            <g id="关闭" transform="translate(94.000000, 1029.000000)">
                <path d="M148.909091,45.4947425 L148.909091,38.9868939 C148.909091,30.3916529 135.818182,30.388399 135.818182,38.9868939 L135.818182,32.4790454 C135.818182,23.8838044 122.727273,23.8805504 122.727273,32.4790454 L122.727273,6.44765104 C122.727273,-2.14758997 109.636364,-2.1508439 109.636364,6.44765104 L109.636364,56.9469291 C103.647273,50.9906207 97.7498182,42.7191451 91.9096364,48.524146 C89.3634545,51.0556991 89.3634545,55.1979448 91.9096364,57.7294979 L110.421818,76.1353206 C111.843818,77.5491507 113.76,78.0876752 115.628727,77.923352 C117.613636,78.09581 153.454909,77.923352 155.454545,77.923352 C159.069273,77.923352 162,75.1200962 162,71.5261369 L162,45.4947425 C162,36.8995015 148.909091,36.8962476 148.909091,45.4947425 Z" id="Path"></path>
            </g>
        </g>
    </g>
</svg>
