<?xml version="1.0" encoding="UTF-8"?>
<svg width="39px" height="39px" viewBox="0 0 39 39" version="1.1" xmlns="http://www.w3.org/2000/svg" xmlns:xlink="http://www.w3.org/1999/xlink">
    <!-- Generator: Sketch 46.2 (44496) - http://www.bohemiancoding.com/sketch -->
    <title>Group 2</title>
    <desc>Created with Sketch.</desc>
    <defs></defs>
    <g id="整理一致性" stroke="none" stroke-width="1" fill="none" fill-rule="evenodd">
        <g id="重画图标【1】" transform="translate(-189.000000, -756.000000)" fill-rule="nonzero" fill="#555555">
            <g id="Group-2" transform="translate(186.000000, 750.000000)">
                <path d="M35.9781936,10.9983521 L29.5402411,10.9983521 C28.6895894,10.9983521 28.0005646,10.3577928 28.0005646,9.50714111 C28.0005646,8.65648946 28.6895894,8 29.5402411,8 L39.4597589,8 C40.3104106,8 41,8.68958942 41,9.54024107 L41,19.4597589 C41,20.3104106 40.3784684,20.9970856 39.5278168,20.9970856 C38.6771651,20.9970856 38.0038147,20.3104106 38.0038147,19.4597589 L38.0038147,13.0196396 L24.4425255,26.5809289 C23.883764,27.1396904 22.9778326,27.1396904 22.4190711,26.5809289 C21.8603096,26.0221674 21.8603096,25.116236 22.4190711,24.5574745 L35.9781936,10.9983521 L35.9781936,10.9983521 Z" id="Path-12"></path>
                <path d="M22.5,6.00360107 C11.7304474,6.00360107 3,14.7340485 3,25.5036011 C3,36.2731537 11.7304474,45.0036011 22.5,45.0036011 C33.2695526,45.0036011 42,36.2731537 42,25.5036011 C42,24.6759343 41.3290435,24.0049778 40.5013767,24.0049778 C39.6737099,24.0049778 39.0027534,24.6759343 39.0027534,25.5036011 C39.0027534,34.6178201 31.6142191,42.0063545 22.5,42.0063545 C13.3857809,42.0063545 5.99724656,34.6178201 5.99724656,25.5036011 C5.99724656,16.389382 13.3857809,9.00084763 22.5,9.00084763 C23.3276668,9.00084763 23.9986233,8.32989114 23.9986233,7.50222435 C23.9986233,6.67455757 23.3276668,6.00360107 22.5,6.00360107 Z" id="Oval-5"></path>
            </g>
        </g>
    </g>
</svg>