<?xml version="1.0" encoding="UTF-8"?>
<svg width="120px" height="120px" viewBox="0 0 120 120" version="1.1" xmlns="http://www.w3.org/2000/svg" xmlns:xlink="http://www.w3.org/1999/xlink">
    <!-- Generator: Sketch 47.1 (45422) - http://www.bohemiancoding.com/sketch -->
    <title>wifi</title>
    <desc>Created with Sketch.</desc>
    <defs></defs>
    <g id="整理一致性" stroke="none" stroke-width="1" fill="none" fill-rule="evenodd">
        <g id="重画图标【2】" transform="translate(-1354.000000, -1739.000000)" fill="#555555">
            <g id="wifi-copy" transform="translate(1354.000000, 1739.000000)">
                <g id="wifi">
                    <path d="M60,0 L60,0 C93.137085,-6.08718376e-15 120,26.862915 120,60 L120,60 C120,93.137085 93.137085,120 60,120 L60,120 L60,120 C26.862915,120 4.05812251e-15,93.137085 0,60 L0,60 L0,60 C-4.05812251e-15,26.862915 26.862915,6.08718376e-15 60,0 L60,0 Z M60,6 L60,6 C30.1766235,6 6,30.1766235 6,60 L6,60 C6,89.8233765 30.1766235,114 60,114 L60,114 L60,114 C89.8233765,114 114,89.8233765 114,60 L114,60 C114,30.1766235 89.8233765,6 60,6 L60,6 Z" id="Combined-Shape"></path>
                    <g id="Group-17" transform="translate(55.772078, 60.500000) rotate(-45.000000) translate(-55.772078, -60.500000) translate(43.272078, 48.000000)">
                        <path d="M1,1 L25,1 L25,1 C25,14.254834 14.254834,25 1,25 L1,25 L1,19.027832 L1,1 Z M1,1 L1,1 L1,19 L1,19 C10.9411255,19 19,10.9411255 19,1 L1,1 L1,1 Z" id="Combined-Shape-Copy-5"></path>
                        <path d="M0.292893219,0.292893219 L7.29289322,0.292893219 L7.29289322,0.292893219 L7.29289322,0.292893219 C7.29289322,4.15888647 4.15888647,7.29289322 0.292893219,7.29289322 L0.292893219,7.29289322 L0.292893219,0.292893219 Z" id="Combined-Shape"></path>
                    </g>
                </g>
            </g>
        </g>
    </g>
</svg>