<?xml version="1.0" encoding="UTF-8"?>
<svg width="39px" height="39px" viewBox="0 0 39 39" version="1.1" xmlns="http://www.w3.org/2000/svg" xmlns:xlink="http://www.w3.org/1999/xlink">
    <!-- Generator: Sketch 46.2 (44496) - http://www.bohemiancoding.com/sketch -->
    <title>Group 3</title>
    <desc>Created with Sketch.</desc>
    <defs></defs>
    <g id="整理一致性" stroke="none" stroke-width="1" fill="none" fill-rule="evenodd">
        <g id="重画图标【1】" transform="translate(-1014.000000, -241.000000)" fill="#555555">
            <g id="Group-3" transform="translate(1009.000000, 236.000000)">
                <path d="M23,38 C31.2842712,38 38,31.2842712 38,23 C38,14.7157288 31.2842712,8 23,8 C14.7157288,8 8,14.7157288 8,23 C8,31.2842712 14.7157288,38 23,38 Z M23,41 C13.0588745,41 5,32.9411255 5,23 C5,13.0588745 13.0588745,5 23,5 C32.9411255,5 41,13.0588745 41,23 C41,32.9411255 32.9411255,41 23,41 Z" id="Oval-8" fill-rule="nonzero"></path>
                <path d="M35.6364749,33.3852107 L43.5370158,41.2857516 C44.1601061,41.9088419 44.1601061,42.9190707 43.5370158,43.5421609 C42.9139256,44.1652512 41.9036967,44.1652512 41.2806065,43.5421609 L33.3800656,35.64162 L35.6364749,33.3852107 Z" id="Rectangle-11"></path>
            </g>
        </g>
    </g>
</svg>