<?xml version="1.0" standalone="no"?>
<svg width="48px" height="48px" viewBox="0 0 48 48" version="1.1" xmlns="http://www.w3.org/2000/svg" xmlns:xlink="http://www.w3.org/1999/xlink">
    <!-- Generator: Sketch 48.2 (47327) - http://www.bohemiancoding.com/sketch -->
    <desc>Created with Sketch.</desc>
    <defs></defs>
    <g id="Page-1" stroke="none" stroke-width="1" fill="none" fill-rule="evenodd">
        <g id="more2" fill="#666666" fill-rule="nonzero">
            <path d="M24,0 C10.7428571,0 0,10.7428571 0,24 C0,37.2571429 10.7428571,48 24,48 C37.2571429,48 48,37.2571429 48,24 C48,10.7428571 37.2571429,0 24,0 Z M24,46.1238095 C11.8142857,46.1238095 1.92857142,36.2380952 1.92857142,24.0523809 C1.92857142,11.8666666 11.8142857,1.98095236 24,1.98095236 C36.1857143,1.98095236 46.0714286,11.8619047 46.0714286,24.0523809 C46.0714286,36.2428571 36.1857143,46.1238095 24,46.1238095 Z" id="Shape"></path>
            <path d="M36.2761905,23.4047619 L36.2619048,23.3904762 L36.2476191,23.3761905 L29.4047619,16.4428571 C29.3857143,16.4190476 29.3619047,16.3904762 29.3380952,16.3666667 C29.0142857,16.0380953 28.4809524,16.0380953 28.1571428,16.3619048 C27.8285714,16.6857143 27.8285714,17.2190476 28.152381,17.5428571 C28.1619048,17.552381 28.1714286,17.5571429 28.1761905,17.5666667 L28.1714286,17.5714286 L33.7333333,23.1666667 L9.68095237,23.1666667 C9.17619047,23.1666667 8.76666666,23.5714286 8.76666666,24.0809524 C8.76666666,24.5904762 9.17142858,24.9952381 9.68095237,24.9952381 L33.6857143,24.9952381 L28.1809524,30.5285714 L28.1857143,30.5333333 C28.1761905,30.5428572 28.1666667,30.5476191 28.1619048,30.5571428 C27.8380952,30.8857143 27.8380952,31.4142857 28.1666667,31.7380952 C28.4952381,32.0619048 29.0238095,32.0619048 29.3476191,31.7333333 C29.3714286,31.7095238 29.3952381,31.6809524 29.4142857,31.6571429 L36.2476191,24.7333333 C36.4238095,24.5619047 36.5333333,24.3190476 36.5333333,24.0571429 C36.5333333,23.8 36.4333334,23.5761905 36.2761905,23.4047619 Z" id="Shape"></path>
        </g>
    </g>
</svg>
