<?xml version="1.0" encoding="UTF-8"?>
<svg width="42px" height="42px" viewBox="0 0 42 42" version="1.1" xmlns="http://www.w3.org/2000/svg" xmlns:xlink="http://www.w3.org/1999/xlink">
    <!-- Generator: Sketch 46.2 (44496) - http://www.bohemiancoding.com/sketch -->
    <title>已赞</title>
    <desc>Created with Sketch.</desc>
    <defs></defs>
    <g id="整理一致性" stroke="none" stroke-width="1" fill="none" fill-rule="evenodd">
        <g id="重画图标【1】" transform="translate(-1033.000000, -753.000000)" fill="#555555">
            <g id="已赞" transform="translate(1030.000000, 750.000000)">
                <g id="Page-1" transform="translate(3.000000, 3.000000)">
                    <path d="M37.7539,14.0811 C40.4109,14.0811 41.9969,16.0701 41.9969,19.4021 L41.9889,19.5261 L39.8349,36.7471 C39.7999,39.6491 37.4249,42.0001 34.5109,42.0001 L9.9999,42.0001 L9.9999,16.2411 L10.4239,16.2411 C10.9349,14.7291 11.5069,12.9331 12.0629,11.1861 C12.9419,8.4241 13.7729,5.8151 14.2399,4.7441 C15.5349,1.7691 16.8259,0.5431 19.1739,0.0601 C20.5399,-0.2239 22.3449,0.5221 23.6699,1.9071 C24.8749,3.1651 26.7009,6.0481 25.3999,11.2141 C25.2909,11.6481 25.0089,12.2131 24.5579,13.0991 C24.3999,13.4091 24.2259,13.7501 24.0659,14.0811 L37.7539,14.0811 Z" id="Fill-1"></path>
                    <polygon id="Fill-3" points="0 41.9995 0 16.0028 7 16.0028 7 41.9995"></polygon>
                </g>
            </g>
        </g>
    </g>
</svg>