<?xml version="1.0" encoding="UTF-8"?>
<svg width="42px" height="42px" viewBox="0 0 42 42" version="1.1" xmlns="http://www.w3.org/2000/svg" xmlns:xlink="http://www.w3.org/1999/xlink">
    <!-- Generator: Sketch 46.2 (44496) - http://www.bohemiancoding.com/sketch -->
    <title>Group 12</title>
    <desc>Created with Sketch.</desc>
    <defs></defs>
    <g id="整理一致性" stroke="none" stroke-width="1" fill="none" fill-rule="evenodd">
        <g id="重画图标【1】" transform="translate(-1205.000000, -753.000000)" fill="#555555">
            <g id="Group-12" transform="translate(1202.000000, 750.000000)">
                <path d="M39.892,39.1136036 L39.88,39.3004257 C39.88,40.796002 38.655,42.0138427 37.148,42.0138427 L15,41.9668874 L15,22.0418551 L15.426,22.0568408 L15.829,20.8399992 C16.397,19.2155456 17.056,17.1545076 17.693,15.163403 C18.497,12.6497959 19.328,10.0502705 19.735,9.12215403 C20.858,6.55559727 21.639,6.22591112 22.792,5.99013557 C23.177,5.92120119 24.649,6.28085881 25.851,7.55364718 C26.852,8.61463716 27.871,10.5657798 27.042,13.8386641 C26.942,14.2382837 26.837,14.8686836 26.717,15.5989884 C26.587,16.3892361 26.439,17.2863821 26.298,17.8448504 L25.829,19.9728247 L40.322,20.0177819 C40.817,20.0177819 41.969,20.0177819 41.996,22.6462797 L39.892,39.1136036 Z M6,41.9678864 L6,21.9779159 L11.288,21.9839102 L12,21.9929017 L12,41.9668874 L11.288,41.9668874 L6,41.9678864 Z M40.323,17.0526046 L29.573,17.0076474 C29.609,16.7938509 29.644,16.5800545 29.678,16.3732513 C29.778,15.7668286 29.881,14.8447064 29.953,14.5669708 C31.183,9.69860528 29.246,6.7663966 27.983,5.45264723 C26.099,3.49351224 23.642,2.76520555 22.188,3.06492024 C19.694,3.5764333 18.332,4.84922166 16.985,7.92928958 C16.516,8.99827196 15.737,11.4359514 14.834,14.2582647 C14.334,15.8227754 13.831,17.6020815 13.363,18.9917586 L3.011,18.9917586 L3,44.9540437 L37.148,45 C40.276,45 42.827,42.4963833 42.879,39.3993316 L44.986,22.6492768 L44.996,22.4644528 C44.996,18.8928528 43.248,17.0526046 40.323,17.0526046 L40.323,17.0526046 Z" id="Fill-1"></path>
            </g>
        </g>
    </g>
</svg>