<?xml version="1.0" encoding="UTF-8"?>
<svg width="23px" height="42px" viewBox="0 0 23 42" version="1.1" xmlns="http://www.w3.org/2000/svg" xmlns:xlink="http://www.w3.org/1999/xlink">
    <!-- Generator: Sketch 46.2 (44496) - http://www.bohemiancoding.com/sketch -->
    <title>向左</title>
    <desc>Created with Sketch.</desc>
    <defs></defs>
    <g id="整理一致性" stroke="none" stroke-width="1" fill="none" fill-rule="evenodd">
        <g id="重画图标【1】" transform="translate(-1658.000000, -240.000000)" fill="#555555">
            <g id="向左" transform="translate(1646.000000, 237.000000)">
                <path d="M32.2547344,44.5519528 L12.9319981,26.1713637 C11.7301301,25.0280969 11.6846779,23.1291434 12.8304777,21.9299324 C12.8635049,21.8953656 12.8973547,21.8615906 12.9319981,21.8286363 L32.2547344,3.44804724 C32.8827518,2.85065092 33.9009694,2.85065092 34.5289869,3.44804724 C35.1570044,4.04544356 35.1570044,5.01401437 34.5289869,5.61141069 L15.958728,23.2762121 C15.5581053,23.657301 15.5429546,24.2902855 15.9248878,24.6900225 C15.9358969,24.7015448 15.9471802,24.7128031 15.958728,24.7237879 L34.5289869,42.3885893 C35.1570044,42.9859856 35.1570044,43.9545564 34.5289869,44.5519528 C33.9009694,45.1493491 32.8827518,45.1493491 32.2547344,44.5519528 Z" id="Rectangle-13"></path>
            </g>
        </g>
    </g>
</svg>