<?xml version="1.0" encoding="UTF-8"?>
<svg width="23px" height="42px" viewBox="0 0 23 42" version="1.1" xmlns="http://www.w3.org/2000/svg" xmlns:xlink="http://www.w3.org/1999/xlink">
    <!-- Generator: Sketch 46.2 (44496) - http://www.bohemiancoding.com/sketch -->
    <title>向右</title>
    <desc>Created with Sketch.</desc>
    <defs></defs>
    <g id="整理一致性" stroke="none" stroke-width="1" fill="none" fill-rule="evenodd">
        <g id="重画图标【1】" transform="translate(-1789.000000, -240.000000)" fill="#555555">
            <g id="向右" transform="translate(1776.000000, 237.000000)">
                <path d="M15.7452656,3.44804724 L35.0680019,21.8286363 C36.2698699,22.9719031 36.3153221,24.8708566 35.1695223,26.0700676 C35.1364951,26.1046344 35.1026453,26.1384094 35.0680019,26.1713637 L15.7452656,44.5519528 C15.1172482,45.1493491 14.0990306,45.1493491 13.4710131,44.5519528 C12.8429956,43.9545564 12.8429956,42.9859856 13.4710131,42.3885893 L32.041272,24.7237879 C32.4418947,24.342699 32.4570454,23.7097145 32.0751122,23.3099775 C32.0677728,23.3022959 25.8664064,17.4027737 13.4710131,5.61141069 C12.8429956,5.01401437 12.8429956,4.04544356 13.4710131,3.44804724 C14.0990306,2.85065092 15.1172482,2.85065092 15.7452656,3.44804724 Z" id="Rectangle-13"></path>
            </g>
        </g>
    </g>
</svg>