<?xml version="1.0" encoding="UTF-8"?>
<svg width="29px" height="16px" viewBox="0 0 29 16" version="1.1" xmlns="http://www.w3.org/2000/svg" xmlns:xlink="http://www.w3.org/1999/xlink">
    <!-- Generator: Sketch 47.1 (45422) - http://www.bohemiancoding.com/sketch -->
    <title>Shape Copy 7</title>
    <desc>Created with Sketch.</desc>
    <defs></defs>
    <g id="组件" stroke="none" stroke-width="1" fill="none" fill-rule="evenodd">
        <g id="展开/收起" transform="translate(-1491.000000, -780.000000)" fill="#555555">
            <g id="Group-2-Copy-2" transform="translate(1391.000000, 765.000000)">
                <path d="M109.019593,9.38825668 C108.807548,9.14992059 108.500326,9 108.15842,9 C107.518626,9 107,9.52466034 107,10.171868 C107,10.4954718 107.129649,10.7884619 107.339283,11.0005357 L119.205077,23.0062184 L107.353682,34.9954216 C107.135536,35.2222467 107.01028,35.5102992 107.01028,35.8280703 C107.01028,36.4753088 107.528906,37 108.168731,37 C108.482847,37 108.767586,36.8733483 108.976275,36.6679404 C108.984572,36.6597624 121.666787,23.8299175 121.666787,23.8299175 C121.872761,23.6159613 122,23.325656 122,23.0052926 C122,22.6811641 121.869955,22.3878654 121.659832,22.1757299 L109.019593,9.38825668 Z" id="Shape-Copy-7" transform="translate(114.500000, 23.000000) rotate(-90.000000) translate(-114.500000, -23.000000) "></path>
            </g>
        </g>
    </g>
</svg>